<svg xmlns="http://www.w3.org/2000/svg" width="300" height="56" viewBox="0 0 300 56" role="img" aria-labelledby="title">
  <title>Blue Cross Blue Shield</title>
  <rect width="300" height="56" fill="none"/>
  <g transform="translate(8 11)" fill="#1b66c9">
    <path d="M9 0h6v10h10v6H15v10H9V16H0v-6h9z"/>
    <path d="M47 0c-3 5-7 8-12 10 4 2 8 5 12 10-5-2-10-3-14-3s-9 1-14 3c4-5 8-8 12-10-4-2-8-5-12-10 5 2 10 3 14 3s9-1 14-3Z"/>
  </g>
  <text x="68" y="24" font-family="Arial, Helvetica, sans-serif" font-size="18" font-weight="700" fill="#244b86">BlueCross</text>
  <text x="68" y="43" font-family="Arial, Helvetica, sans-serif" font-size="18" font-weight="700" fill="#244b86">BlueShield</text>
</svg>
